# xmcd CD database file
#
# Track frame offsets:
#	150
#	17386
#	37144
#	55758
#	73550
#	94290
#	110255
#	129041
#	146982
#	161669
#	178337
#	200477
#
# Disc length: 2953 seconds
#
# Revision: 0
# Processed by: cddbd v1.5PL3 Copyright (c) Steve Scherf et al.
# Submitted via: CDex 1.51
#
DISCID=a80b870c
DTITLE=阿川泰子 - Dancin'　YASUKO
DYEAR=1900
DGENRE=Jazz
TTITLE0=グレイビー
TTITLE1=ダンス・メリー・ダンス
TTITLE2=トーキョー
TTITLE3=センチメンタル・ジャーニー
TTITLE4=ジャンプ・フォー・ジョイ
TTITLE5=ザ・ミュージック
TTITLE6=ナイトライン
TTITLE7=スキンドゥ・レ・レ
TTITLE8=サーチング
TTITLE9=ミ・アモール
TTITLE10=パードン・マイ・イングリシュ
TTITLE11=Ａ列車で行こう
EXTD=
EXTT0=
EXTT1=
EXTT2=
EXTT3=
EXTT4=
EXTT5=
EXTT6=
EXTT7=
EXTT8=
EXTT9=
EXTT10=
EXTT11=
PLAYORDER=
